<?xml version="1.0"?>

<!DOCTYPE svg PUBLIC '-//W3C//DTD SVG 1.0//EN' 'http://www.w3.org/TR/2001/REC-SVG-20010904/DTD/svg10.dtd'>
<svg fill-opacity="1" xmlns:xlink="http://www.w3.org/1999/xlink" color-rendering="auto" color-interpolation="auto" stroke="black" text-rendering="auto" stroke-linecap="square" stroke-miterlimit="10" stroke-opacity="1" shape-rendering="auto" fill="black" stroke-dasharray="none" font-weight="normal" stroke-width="1" xmlns="http://www.w3.org/2000/svg" font-family="&apos;Dialog&apos;" font-style="normal" stroke-linejoin="miter" font-size="12" stroke-dashoffset="0" image-rendering="auto">
  <!--Unicode Character 'SPEECH BALLOON' (U+1F4AC)-->
  <defs id="genericDefs" />
  <g>
    <g>
      <path d="M275.3438 225.8438 Q275.3438 234.8438 270 246.7969 Q267.3281 252.7031 260.7188 257.9766 Q254.1094 263.25 247.7812 264.6562 Q238.6406 266.625 238.2188 266.625 L178.4531 266.625 Q177.0469 269.5781 173.9531 275.4844 Q158.7656 303.75 128.3906 323.4375 Q107.0156 337.3594 100.5469 337.3594 Q94.2188 337.3594 94.2188 330.8906 Q94.2188 328.9219 99.2812 318.0938 Q103.3594 309.2344 106.4531 299.3906 Q112.2188 281.1094 112.2188 266.625 L48.6562 266.625 Q49.9219 266.625 40.7812 265.0781 Q27.9844 262.9688 19.5469 250.7344 Q11.5312 239.3438 11.5312 225.7031 L11.5312 114.8906 Q11.5312 113.4844 13.0781 104.9062 Q15.6094 90.8438 26.4375 82.125 Q37.2656 73.4062 51.6094 73.4062 L235.2656 73.4062 Q239.7656 73.4062 248.625 75.9375 Q267.6094 81.4219 273.0938 101.3906 Q275.3438 109.6875 275.3438 114.75 L275.3438 225.8438 ZM264.2344 220.6406 L264.2344 116.8594 Q264.2344 105.0469 258.75 96.3281 Q252.7031 86.7656 241.7344 84.5156 Q235.4062 83.25 235.2656 83.25 L51.6094 83.25 Q50.3438 83.25 43.3125 84.9375 Q33.3281 87.3281 27.7031 97.1719 Q22.6406 106.0312 22.6406 117 L22.6406 220.5 Q22.6406 235.9688 31.2891 245.1094 Q39.9375 254.25 55.4062 254.25 L123.75 254.25 L123.75 262.5469 Q123.75 274.5 117.8438 295.0312 Q111.5156 317.25 104.7656 324.8438 Q124.3125 318.9375 143.7891 299.1797 Q163.2656 279.4219 167.9062 260.0156 Q168.75 256.5 169.875 254.25 L231.4688 254.25 Q259.5938 254.25 263.5312 226.5469 Q264.2344 221.4844 264.2344 220.6406 ZM241.0312 113.2031 L231.3281 113.2031 L231.3281 102.2344 L241.0312 102.2344 L241.0312 113.2031 ZM224.7188 113.2031 L180.7031 113.2031 L180.7031 102.2344 L224.7188 102.2344 L224.7188 113.2031 ZM241.0312 143.5781 L215.8594 143.5781 L215.8594 132.1875 L241.0312 132.1875 L241.0312 143.5781 ZM208.5469 143.5781 L182.1094 143.5781 L182.1094 132.1875 L208.5469 132.1875 L208.5469 143.5781 ZM241.0312 173.6719 L198.7031 173.6719 L198.7031 162.5625 L241.0312 162.5625 L241.0312 173.6719 ZM173.8125 113.2031 L114.3281 113.2031 L114.3281 102.2344 L173.8125 102.2344 L173.8125 113.2031 ZM175.5 143.5781 L148.2188 143.5781 L148.2188 132.1875 L175.5 132.1875 L175.5 143.5781 ZM225.5625 203.625 L215.4375 203.625 L215.4375 192.6562 L225.5625 192.6562 L225.5625 203.625 ZM192.2344 173.6719 L182.1094 173.6719 L182.1094 162.5625 L192.2344 162.5625 L192.2344 173.6719 ZM241.0312 234 L215.4375 234 L215.4375 222.6094 L241.0312 222.6094 L241.0312 234 ZM141.6094 143.5781 L131.4844 143.5781 L131.4844 132.1875 L141.6094 132.1875 L141.6094 143.5781 ZM207.9844 203.625 L164.9531 203.625 L164.9531 192.6562 L207.9844 192.6562 L207.9844 203.625 ZM107.8594 113.2031 L81.4219 113.2031 L81.4219 102.2344 L107.8594 102.2344 L107.8594 113.2031 ZM175.5 173.6719 L131.4844 173.6719 L131.4844 162.5625 L175.5 162.5625 L175.5 173.6719 ZM207.9844 234 L181.6875 234 L181.6875 222.6094 L207.9844 222.6094 L207.9844 234 ZM124.5938 143.5781 L81.4219 143.5781 L81.4219 132.1875 L124.5938 132.1875 L124.5938 143.5781 ZM73.9688 113.2031 L47.5312 113.2031 L47.5312 102.2344 L73.9688 102.2344 L73.9688 113.2031 ZM124.5938 173.6719 L114.3281 173.6719 L114.3281 162.5625 L124.5938 162.5625 L124.5938 173.6719 ZM157.9219 203.625 L113.9062 203.625 L113.9062 192.6562 L157.9219 192.6562 L157.9219 203.625 ZM107.8594 173.6719 L98.1562 173.6719 L98.1562 162.5625 L107.8594 162.5625 L107.8594 173.6719 ZM73.9688 143.4375 L63.9844 143.4375 L63.9844 132.1875 L73.9688 132.1875 L73.9688 143.4375 ZM175.0781 234 L114.3281 234 L114.3281 222.6094 L175.0781 222.6094 L175.0781 234 ZM57.2344 143.5781 L47.5312 143.5781 L47.5312 132.1875 L57.2344 132.1875 L57.2344 143.5781 ZM107.8594 203.625 L98.1562 203.625 L98.1562 192.6562 L107.8594 192.6562 L107.8594 203.625 ZM91.125 173.6719 L47.5312 173.6719 L47.5312 162.5625 L91.125 162.5625 L91.125 173.6719 ZM91.125 203.625 L47.5312 203.625 L47.5312 192.6562 L91.125 192.6562 L91.125 203.625 ZM107.8594 234 L81.4219 234 L81.4219 222.6094 L107.8594 222.6094 L107.8594 234 ZM73.9688 234 L47.5312 234 L47.5312 222.6094 L73.9688 222.6094 L73.9688 234 Z" stroke="none" />
    </g>
  </g>
</svg>
